<svg xmlns="http://www.w3.org/2000/svg" width="512" height="371.808" viewBox="0 0 135.467 98.374"><g aria-label="Techaurelian" style="font-size:26.705px;font-family:Finder;-inkscape-font-specification:Finder;fill:#fff"><path d="M0-9.128v.652q0 .652.652.652H3.26q.652 0 .652.652v6.52q0 .652.652.652h.652q.652 0 .652-.652v-6.52q0-.652.652-.652h2.608q.652 0 .652-.652v-.652q0-.652-.652-.652H.652Q0-9.78 0-9.128ZM14.994-9.78q3.912 0 3.912 1.956v3.26q0 .652-.652.652H13.69q-.651 0-.651.652v.652q0 .652 1.303.652h3.912q.652 0 .652.652v.652q0 .652-.652.652h-3.26q-3.911 0-3.911-1.956v-5.868q0-1.956 3.911-1.956zm1.304 3.912q.652 0 .652-.652v-.652q0-.652-1.956-.652-1.955 0-1.955.652v.652q0 .652.651.652zM27.387 0h-3.26q-3.911 0-3.911-1.956v-5.868q0-1.956 3.912-1.956h3.26q.651 0 .651.652v.652q0 .652-.652.652h-3.26q-1.955 0-1.955.652v4.564q0 .652 1.956.652h3.26q.651 0 .651.652v.652q0 .652-.652.652ZM30 0q-.651 0-.651-.652v-8.476q0-.652.652-.652h.652q.652 0 .652.652v2.608q0 .652.652.652h2.608q.652 0 .652-.652v-2.608q0-.652.652-.652h.652q.652 0 .652.652v8.476q0 .652-.652.652h-.652q-.652 0-.652-.652V-3.26q0-.652-.652-.652h-2.608q-.652 0-.652.652v2.608q0 .652-.652.652ZM45.654 0h-3.26q-3.912 0-3.912-1.956v-1.956q0-1.956 3.912-1.956h1.304q.652 0 .652-.652v-.652q0-.652-1.304-.652h-3.912q-.652 0-.652-.652v-.652q0-.652.652-.652h3.26q3.912 0 3.912 1.956v7.172q0 .652-.652.652Zm-3.26-3.912q-1.956 0-1.956.652v.652q0 .652 1.956.652h1.304q.652 0 .652-.652v-.652q0-.652-.652-.652zM47.615-9.128v7.172Q47.615 0 51.527 0t3.912-1.956v-7.172q0-.652-.652-.652h-.652q-.652 0-.652.652v6.52q0 .652-1.956.652t-1.956-.652v-6.52q0-.652-.652-.652h-.652q-.652 0-.652.652zM58.052 0H57.4q-.652 0-.652-.652v-7.172q0-1.956 3.912-1.956h1.37q.651 0 .651.652v.652q0 .652-.652.652H60.66q-1.956 0-1.956.652v6.52q0 .652-.652.652ZM67.817-9.78q3.912 0 3.912 1.956v3.26q0 .652-.652.652h-4.564q-.652 0-.652.652v.652q0 .652 1.304.652h3.912q.652 0 .652.652v.652q0 .652-.652.652h-3.26q-3.912 0-3.912-1.956v-5.868q0-1.956 3.912-1.956zm1.304 3.912q.652 0 .652-.652v-.652q0-.652-1.956-.652t-1.956.652v.652q0 .652.652.652zM74.342-9.78h-.652q-.652 0-.652.652v7.172Q73.038 0 76.95 0h1.304q.652 0 .652-.652v-.652q0-.652-.652-.652H76.95q-1.956 0-1.956-.652v-6.52q0-.652-.652-.652zM80.847 0q-.652 0-.652-.652v-8.476q0-.652.652-.652h.652q.652 0 .652.652v8.476q0 .652-.652.652ZM90.625 0h-3.26q-3.912 0-3.912-1.956v-1.956q0-1.956 3.912-1.956h1.304q.652 0 .652-.652v-.652q0-.652-1.304-.652h-3.912q-.652 0-.652-.652v-.652q0-.652.652-.652h3.26q3.912 0 3.912 1.956v7.172q0 .652-.652.652Zm-3.26-3.912q-1.956 0-1.956.652v.652q0 .652 1.956.652h1.304q.652 0 .652-.652v-.652q0-.652-.652-.652zM93.238 0q-.652 0-.652-.652v-8.476q0-.652.652-.652h3.26q3.912 0 3.912 1.956v7.172q0 .652-.652.652h-.652q-.652 0-.652-.652v-6.52q0-.652-1.956-.652h-1.304q-.652 0-.652.652v6.52q0 .652-.652.652Z" style="fill:#fff" transform="matrix(1.16181 0 0 1.16181 2.625 98.374)"/></g><path d="M126.187 55.44q-4.64 0-4.64 4.64v4.64q0 4.64 4.64 4.64h4.64q4.64 0 4.64-4.64v-4.64q0-4.64-4.64-4.64z" style="font-size:163.571px;font-family:Finder;-inkscape-font-specification:Finder;fill:#fff;stroke-width:1.16181"/><path d="M27.84 64.955V18.558c0-3.092-1.547-4.64-4.64-4.64H4.64c-3.094 0-4.64-1.546-4.64-4.64V4.64C0 1.545 1.546 0 4.64 0h81.023c18.561 0 27.84 4.64 27.84 13.917v51.038c0 3.094-1.547 4.64-4.641 4.64h-23.2c-18.56 0-27.84-4.64-27.84-13.916V41.758c0-9.282 9.28-13.92 27.84-13.92h9.281c3.092 0 4.636-1.546 4.636-4.64v-4.64c0-3.092-3.09-4.64-9.276-4.64H46.4c-3.092 0-4.64 1.548-4.64 4.64v46.397c0 3.094-1.546 4.64-4.64 4.64h-4.64c-3.093 0-4.64-1.546-4.64-4.64zm71.74-13.917v-4.64c0-3.094-1.545-4.64-4.637-4.64h-9.28c-9.28 0-13.92 1.546-13.922 4.64v4.64c.002 3.09 4.642 4.636 13.922 4.64h9.28c3.092-.004 4.636-1.55 4.636-4.64z" style="fill:#fff;fill-opacity:1;fill-rule:nonzero;stroke:none;stroke-width:1.16181"/></svg>