<svg xmlns="http://www.w3.org/2000/svg" width="512" height="512" viewBox="0 0 135.467 135.467"><g aria-label="Techaurelian" style="fill:#fff;font-size:26.705px;font-family:Finder;-inkscape-font-specification:Finder"><path d="M0-9.128v.652q0 .652.652.652H3.26q.652 0 .652.652v6.52q0 .652.652.652h.652q.652 0 .652-.652v-6.52q0-.652.652-.652h2.608q.652 0 .652-.652v-.652q0-.652-.652-.652H.652Q0-9.78 0-9.128ZM14.994-9.78q3.912 0 3.912 1.956v3.26q0 .652-.652.652H13.69q-.651 0-.651.652v.652q0 .652 1.303.652h3.912q.652 0 .652.652v.652q0 .652-.652.652h-3.26q-3.911 0-3.911-1.956v-5.868q0-1.956 3.911-1.956zm1.304 3.912q.652 0 .652-.652v-.652q0-.652-1.956-.652-1.955 0-1.955.652v.652q0 .652.651.652zM27.387 0h-3.26q-3.911 0-3.911-1.956v-5.868q0-1.956 3.912-1.956h3.26q.651 0 .651.652v.652q0 .652-.652.652h-3.26q-1.955 0-1.955.652v4.564q0 .652 1.956.652h3.26q.651 0 .651.652v.652q0 .652-.652.652ZM30 0q-.651 0-.651-.652v-8.476q0-.652.652-.652h.652q.652 0 .652.652v2.608q0 .652.652.652h2.608q.652 0 .652-.652v-2.608q0-.652.652-.652h.652q.652 0 .652.652v8.476q0 .652-.652.652h-.652q-.652 0-.652-.652V-3.26q0-.652-.652-.652h-2.608q-.652 0-.652.652v2.608q0 .652-.652.652ZM45.654 0h-3.26q-3.912 0-3.912-1.956v-1.956q0-1.956 3.912-1.956h1.304q.652 0 .652-.652v-.652q0-.652-1.304-.652h-3.912q-.652 0-.652-.652v-.652q0-.652.652-.652h3.26q3.912 0 3.912 1.956v7.172q0 .652-.652.652Zm-3.26-3.912q-1.956 0-1.956.652v.652q0 .652 1.956.652h1.304q.652 0 .652-.652v-.652q0-.652-.652-.652zM47.615-9.128v7.172Q47.615 0 51.527 0t3.912-1.956v-7.172q0-.652-.652-.652h-.652q-.652 0-.652.652v6.52q0 .652-1.956.652t-1.956-.652v-6.52q0-.652-.652-.652h-.652q-.652 0-.652.652zM58.052 0H57.4q-.652 0-.652-.652v-7.172q0-1.956 3.912-1.956h1.37q.651 0 .651.652v.652q0 .652-.652.652H60.66q-1.956 0-1.956.652v6.52q0 .652-.652.652ZM67.817-9.78q3.912 0 3.912 1.956v3.26q0 .652-.652.652h-4.564q-.652 0-.652.652v.652q0 .652 1.304.652h3.912q.652 0 .652.652v.652q0 .652-.652.652h-3.26q-3.912 0-3.912-1.956v-5.868q0-1.956 3.912-1.956zm1.304 3.912q.652 0 .652-.652v-.652q0-.652-1.956-.652t-1.956.652v.652q0 .652.652.652zM74.342-9.78h-.652q-.652 0-.652.652v7.172Q73.038 0 76.95 0h1.304q.652 0 .652-.652v-.652q0-.652-.652-.652H76.95q-1.956 0-1.956-.652v-6.52q0-.652-.652-.652zM80.847 0q-.652 0-.652-.652v-8.476q0-.652.652-.652h.652q.652 0 .652.652v8.476q0 .652-.652.652ZM90.625 0h-3.26q-3.912 0-3.912-1.956v-1.956q0-1.956 3.912-1.956h1.304q.652 0 .652-.652v-.652q0-.652-1.304-.652h-3.912q-.652 0-.652-.652v-.652q0-.652.652-.652h3.26q3.912 0 3.912 1.956v7.172q0 .652-.652.652Zm-3.26-3.912q-1.956 0-1.956.652v.652q0 .652 1.956.652h1.304q.652 0 .652-.652v-.652q0-.652-.652-.652zM93.238 0q-.652 0-.652-.652v-8.476q0-.652.652-.652h3.26q3.912 0 3.912 1.956v7.172q0 .652-.652.652h-.652q-.652 0-.652-.652v-6.52q0-.652-1.956-.652h-1.304q-.652 0-.652.652v6.52q0 .652-.652.652Z" style="fill:#fff" transform="matrix(1.16181 0 0 1.16181 2.625 116.92)"/></g><path d="M3.993-11.98Q0-11.98 0-7.987v3.994Q0 0 3.993 0h3.994q3.993 0 3.993-3.993v-3.994q0-3.993-3.993-3.993z" style="fill:#fff;font-size:163.571px;font-family:Finder;-inkscape-font-specification:Finder" transform="matrix(1.16181 0 0 1.16181 121.548 87.905)"/><path d="M379.426 536.285v39.935c0 2.661-1.331 3.994-3.994 3.994h-15.974c-2.663 0-3.994 1.33-3.994 3.994v3.991c0 2.664 1.331 3.994 3.994 3.994h69.738c15.976 0 23.962-3.994 23.962-11.979v-43.929c0-2.663-1.331-3.994-3.994-3.994h-19.968c-15.975 0-23.963 3.994-23.963 11.978v11.982c0 7.989 7.988 11.981 23.963 11.981h7.988c2.661 0 3.99 1.331 3.99 3.994v3.994c0 2.661-2.659 3.994-7.984 3.994h-37.789c-2.662 0-3.994-1.333-3.994-3.994v-39.935c0-2.663-1.331-3.994-3.993-3.994h-3.994c-2.663 0-3.994 1.331-3.994 3.994zm61.748 11.978v3.994c0 2.663-1.329 3.994-3.99 3.994h-7.988c-7.987 0-11.981-1.331-11.983-3.994v-3.994c.002-2.659 3.996-3.99 11.983-3.994h7.988c2.661.004 3.99 1.335 3.99 3.994z" style="fill:#fff;fill-opacity:1;fill-rule:nonzero;stroke:none" transform="matrix(1.16181 0 0 -1.16181 -412.983 706.564)"/></svg>